<svg xmlns="http://www.w3.org/2000/svg" version="1.1" xmlns:xlink="http://www.w3.org/1999/xlink" width="512" height="512" x="0" y="0" viewBox="0 0 512 512" style="enable-background:new 0 0 512 512" xml:space="preserve" class=""><g><g fill-rule="evenodd"><path fill="#3d7dbd" d="M110.981 495.991H41.842a6.388 6.388 0 0 1-6.388-6.388V413.74a6.39 6.39 0 0 1 5.758-6.357 624.197 624.197 0 0 0 33.767-6.013 664.92 664.92 0 0 0 33.941-7.962c4.571-1.374 8.448 1.921 8.448 6.048v90.146a6.388 6.388 0 0 1-6.388 6.388zm44.453-456.314c49.936 3.16 89.882 43.107 93.042 93.042h7.773a6.388 6.388 0 0 1 6.388 6.388c0 62.734-50.858 113.591-113.591 113.591S35.455 201.841 35.455 139.107 86.312 25.516 149.046 25.516a6.388 6.388 0 0 1 6.388 6.388zm276.957 82.56 34.601 19.811c4.919 2.813 10.849-1.771 9.304-7.255-.032-.113-10.96-38.778-29.28-113.745-.859-3.739-4.568-5.84-8.099-4.753-.107.033-36.383 11.246-113.435 32.004-5.713 1.46-6.579 8.932-1.67 11.742l33.991 19.47C286.131 204.97 176.884 290.416 39.572 342.751c-7.096 2.705-4.299 13.511 3.39 12.247 81.282-12.171 154.669-38.04 220.143-77.58 64.035-38.671 120.468-90.408 169.286-155.181zm17.282 373.754h-69.136a6.388 6.388 0 0 1-6.388-6.388V265.607a6.381 6.381 0 0 1 2.915-5.361c12.641-10.001 24.699-20.338 36.085-30.933 11.306-10.521 21.803-21.166 31.401-31.858 4.241-5.178 11.512-1.888 11.512 3.815v288.333a6.388 6.388 0 0 1-6.388 6.388zm-112.897 0H267.64a6.388 6.388 0 0 1-6.388-6.388V338.378a6.391 6.391 0 0 1 3.957-5.909 759.243 759.243 0 0 0 34.505-19.272 732.69 732.69 0 0 0 33.097-20.816c4.777-3.479 10.353.11 10.353 5.008v192.213a6.388 6.388 0 0 1-6.388 6.388zm-112.897 0h-69.136a6.388 6.388 0 0 1-6.388-6.388V386.431a6.39 6.39 0 0 1 4.958-6.227 738.39 738.39 0 0 0 33.877-12.237 757.926 757.926 0 0 0 33.617-14.007c4.861-2.412 9.459 1.168 9.459 5.602v130.04a6.388 6.388 0 0 1-6.388 6.388z" opacity="1" data-original="#3d7dbd" class=""></path><g fill="#9bc9f2"><path d="M47.321 482.394h56.362v-75.543c-18.483 4.616-37.628 8.562-56.362 11.539zM160.221 482.394h56.36V368.493a756.642 756.642 0 0 1-56.36 21.681v92.221zM273.118 482.394h56.36v-174.01c-18.374 11.864-36.801 22.64-56.36 32.999zM386.016 482.394h56.36V216.702c-17.413 18.173-36.231 35.086-56.36 51.135v214.558zM367.698 70.17c3.825 1.327 5.551 5.737 3.195 9.627-35.183 63.006-80.081 117.376-134.666 163.054-40.361 33.776-86.003 62.794-136.909 87.033 56.424-13.961 108.524-35.369 156.291-64.216 64.014-38.658 120.286-90.687 168.8-156.057a6.382 6.382 0 0 1 8.527-2.072l26.088 14.943c-4.531-16.842-12.685-47.883-23.73-92.878-12.446 3.726-43.007 12.7-92.666 26.204l25.071 14.361zM234.76 131.899c-3.117-42.881-37.355-77.118-80.235-80.236v80.236z" fill="#9bc9f2" opacity="1" data-original="#9bc9f2" class=""></path><path d="M141.749 138.287V37.671C88.89 40.976 47.322 84.906 47.322 138.287c0 55.681 45.135 100.815 100.815 100.815 53.38 0 97.311-41.569 100.616-94.427H148.137a6.388 6.388 0 0 1-6.388-6.388z" fill="#9bc9f2" opacity="1" data-original="#9bc9f2" class=""></path></g></g></g></svg>