<svg xmlns="http://www.w3.org/2000/svg" version="1.1" xmlns:xlink="http://www.w3.org/1999/xlink" width="512" height="512" x="0" y="0" viewBox="0 0 48 48" style="enable-background:new 0 0 512 512" xml:space="preserve" class=""><g><path fill="#e1f5fe" d="M2.5 7.5v30a2 2 0 0 0 2 2h5v5.349c0 .495.642.688.916.277L17.5 39.5h26a2 2 0 0 0 2-2v-30a2 2 0 0 0-2-2h-39a2 2 0 0 0-2 2z" opacity="1" data-original="#e1f5fe" class=""></path><path fill="#0277bd" d="M10.003 45.85A.995.995 0 0 1 9 44.849V40H4.5A2.502 2.502 0 0 1 2 37.5v-30C2 6.121 3.121 5 4.5 5h8a.5.5 0 0 1 0 1h-8C3.673 6 3 6.673 3 7.5v30c0 .827.673 1.5 1.5 1.5h5a.5.5 0 0 1 .5.5v5.349a.495.495 0 0 1 .105-.114l7.084-5.626A.495.495 0 0 1 17.5 39h26c.827 0 1.5-.673 1.5-1.5v-30c0-.827-.673-1.5-1.5-1.5h-7.875a.5.5 0 0 1 0-1H43.5C44.879 5 46 6.121 46 7.5v30c0 1.379-1.121 2.5-2.5 2.5H17.675l-6.896 5.477a.996.996 0 0 1-.776.373z" opacity="1" data-original="#0277bd"></path><g fill="#fff"><path d="M43.5 7h-7.042a.5.5 0 0 1 0-1H43.5a.5.5 0 0 1 0 1zM3.5 32a.5.5 0 0 1-.5-.5v-24C3 6.673 3.673 6 4.5 6h6.958a.5.5 0 0 1 0 1H4.5c-.275 0-.5.225-.5.5v24a.5.5 0 0 1-.5.5z" fill="#ffffff" opacity="1" data-original="#ffffff" class=""></path></g><path fill="#ffe57f" d="M26.5 35.5a1 1 0 0 1-1 1h-4a1 1 0 1 1 0-2h4a1 1 0 0 1 1 1z" opacity="1" data-original="#ffe57f"></path><path fill="#64ffda" d="M11.282 25.5H10.5a4 4 0 0 1-4-4v-1a4 4 0 0 1 4-4h.782c.12 0 .218.098.218.218v8.564c0 .12-.098.218-.218.218z" opacity="1" data-original="#64ffda"></path><path fill="#ffffff" d="M8.453 24.191a.502.502 0 0 1-.342-.135A3.513 3.513 0 0 1 7 21.5v-1a3.49 3.49 0 0 1 1.279-2.703.498.498 0 0 1 .703.068.498.498 0 0 1-.068.703A2.497 2.497 0 0 0 8 20.5v1c0 .698.282 1.347.795 1.826a.5.5 0 0 1-.342.865z" opacity="1" data-original="#ffffff" class=""></path><path fill="#8c9eff" d="M14.5 25.5a2 2 0 0 1-4 0v-9a2 2 0 0 1 4 0z" opacity="1" data-original="#8c9eff"></path><path fill="#e8eaf6" d="M11.5 24.505a.5.5 0 0 1-.5-.5V16.5a1.5 1.5 0 0 1 1.321-1.489.499.499 0 1 1 .119.993.499.499 0 0 0-.44.496v7.505a.5.5 0 0 1-.5.5z" opacity="1" data-original="#e8eaf6"></path><path fill="#64ffda" d="M36.718 25.5h.782a4 4 0 0 0 4-4v-1a4 4 0 0 0-4-4h-.782a.219.219 0 0 0-.218.218v8.564c0 .12.098.218.218.218z" opacity="1" data-original="#64ffda"></path><path fill="#8c9eff" d="M35.5 27.5a2 2 0 0 0 2-2v-9a2 2 0 0 0-4 0v9a2 2 0 0 0 2 2z" opacity="1" data-original="#8c9eff"></path><path fill="#e8eaf6" d="M34.5 25.74a.5.5 0 0 1-.5-.5V16.5c0-.933.89-1.668 1.816-1.467.27.058.442.322.386.593a.505.505 0 0 1-.593.386.503.503 0 0 0-.609.488v8.74a.5.5 0 0 1-.5.5z" opacity="1" data-original="#e8eaf6"></path><path fill="#0277bd" d="M26.458 36.467a.5.5 0 0 1-.034-.999c4.459-.313 8.521-2.975 10.6-6.945a.507.507 0 0 1 .676-.211.502.502 0 0 1 .211.676c-2.239 4.274-6.613 7.141-11.416 7.479h-.037z" opacity="1" data-original="#0277bd"></path><path fill="#64ffda" d="M22.419 5.5h3.162c5.149 0 9.617 2.979 11.875 7.229C36.043 6.818 30.739 2.5 24.396 2.5h-.791c-6.344 0-11.647 4.318-13.061 10.229C12.802 8.479 17.27 5.5 22.419 5.5z" opacity="1" data-original="#64ffda"></path><path fill="#ffffff" d="M19.24 4.774a.5.5 0 0 1-.173-.969A13.052 13.052 0 0 1 23.597 3a.5.5 0 0 1 0 1 12.085 12.085 0 0 0-4.184.743.476.476 0 0 1-.173.031z" opacity="1" data-original="#ffffff" class=""></path><g fill="#0277bd"><path d="M25.5 37h-4c-.827 0-1.5-.673-1.5-1.5s.673-1.5 1.5-1.5h4c.827 0 1.5.673 1.5 1.5s-.673 1.5-1.5 1.5zm-4-2c-.275 0-.5.225-.5.5s.225.5.5.5h4c.275 0 .5-.225.5-.5s-.225-.5-.5-.5zM8.429 25.423a.495.495 0 0 1-.259-.072A4.472 4.472 0 0 1 6 21.5v-1c0-1.609.868-3.106 2.266-3.907a.5.5 0 1 1 .498.868A3.51 3.51 0 0 0 7 20.5v1c0 1.234.631 2.354 1.688 2.995a.5.5 0 0 1-.259.928zM12.5 28a2.502 2.502 0 0 1-2.5-2.5v-9c0-1.379 1.121-2.5 2.5-2.5s2.5 1.121 2.5 2.5v9c0 1.379-1.121 2.5-2.5 2.5zm0-13c-.827 0-1.5.673-1.5 1.5v9c0 .827.673 1.5 1.5 1.5s1.5-.673 1.5-1.5v-9c0-.827-.673-1.5-1.5-1.5zM39.682 25.354a.5.5 0 0 1-.273-.919A3.494 3.494 0 0 0 41 21.5v-1a3.514 3.514 0 0 0-1.736-3.023.5.5 0 0 1 .504-.864A4.516 4.516 0 0 1 42 20.5v1a4.489 4.489 0 0 1-2.045 3.772.503.503 0 0 1-.273.082zM35.5 28a2.502 2.502 0 0 1-2.5-2.5v-9c0-1.379 1.121-2.5 2.5-2.5s2.5 1.121 2.5 2.5v9c0 1.379-1.121 2.5-2.5 2.5zm0-13c-.827 0-1.5.673-1.5 1.5v9c0 .827.673 1.5 1.5 1.5s1.5-.673 1.5-1.5v-9c0-.827-.673-1.5-1.5-1.5zM37.456 13.229a.497.497 0 0 1-.441-.266C34.733 8.668 30.352 6 25.581 6h-3.162c-4.771 0-9.152 2.668-11.434 6.964a.501.501 0 0 1-.928-.351C11.552 6.364 17.122 2 23.604 2h.791c6.482 0 12.053 4.364 13.547 10.613a.5.5 0 0 1-.486.616zM22.419 5h3.162c3.755 0 7.285 1.532 9.872 4.159C33.166 5.403 29.032 3 24.396 3h-.791c-4.637 0-8.771 2.403-11.058 6.159C15.134 6.532 18.664 5 22.419 5z" fill="#0277bd" opacity="1" data-original="#0277bd"></path></g></g></svg>