<svg xmlns="http://www.w3.org/2000/svg" version="1.1" xmlns:xlink="http://www.w3.org/1999/xlink" width="512" height="512" x="0" y="0" viewBox="0 0 64 64" style="enable-background:new 0 0 512 512" xml:space="preserve" class=""><g><g fill="#0071bc"><path d="m46 17.489 1.212-1.212a1.003 1.003 0 0 0-1.418-1.418l-2.9 2.9a1.002 1.002 0 0 0 0 1.418l2.9 2.9a1 1 0 0 0 .709.294 1.01 1.01 0 0 0 .709-1.711l-1.163-1.163A12.539 12.539 0 0 1 58.07 32.005c-.69 16.63-24.382 16.62-25.067 0a14.556 14.556 0 0 0-14.54-14.54C-.531 18.208-.95 45.19 18 46.52l-1.212 1.212a1.003 1.003 0 1 0 1.418 1.418l2.9-2.9a1.002 1.002 0 0 0 0-1.418l-2.9-2.9a1.003 1.003 0 0 0-1.418 1.417l1.163 1.163c-16.245-1.275-15.804-24.408.513-25.041a12.548 12.548 0 0 1 12.533 12.534 14.556 14.556 0 0 0 14.54 14.539C64.531 45.8 64.95 18.82 46 17.489z" fill="#0071bc" opacity="1" data-original="#0071bc" class=""></path><path d="M26.485 29.646h-.621a7.923 7.923 0 0 0-1.655-2.867 1.835 1.835 0 0 0-.3-2.838l-1.184-.682a1.684 1.684 0 0 0-2.286.622l-.311.531a8 8 0 0 0-3.309 0c-.298-.546-.67-1.185-1.333-1.323-.83-.316-1.778.498-2.457.852a1.824 1.824 0 0 0-.3 2.838 7.824 7.824 0 0 0-1.665 2.857h-.622a1.682 1.682 0 0 0-1.685 1.685v1.363a1.68 1.68 0 0 0 1.685 1.675h.622a7.76 7.76 0 0 0 1.654 2.868 1.835 1.835 0 0 0 .301 2.837l1.183.682a1.672 1.672 0 0 0 2.286-.611l.311-.542a7.673 7.673 0 0 0 3.309 0l.32.552a1.695 1.695 0 0 0 2.297.611c1.625-.84 2.76-1.67 1.474-3.52a7.781 7.781 0 0 0 1.665-2.867h.621a1.68 1.68 0 0 0 1.685-1.674V31.33a1.682 1.682 0 0 0-1.685-1.685zm-8.021 6.748a4.387 4.387 0 0 1 0-8.773 4.387 4.387 0 0 1 0 8.773z" fill="#0071bc" opacity="1" data-original="#0071bc" class=""></path><path d="M16.077 32.003a2.387 2.387 0 0 0 4.773 0 2.387 2.387 0 0 0-4.773 0zM39.274 36.185a1.003 1.003 0 0 0 1.418-1.418l-2.762-2.762 2.762-2.763a1.003 1.003 0 0 0-1.418-1.418l-3.47 3.472a1.002 1.002 0 0 0 0 1.417zM50.38 36.185a1.002 1.002 0 0 0 1.418 0l3.472-3.472a1.002 1.002 0 0 0 0-1.417l-3.472-3.472a1.003 1.003 0 1 0-1.418 1.418l2.763 2.763-2.763 2.762a1.002 1.002 0 0 0 0 1.418zM45.207 37.454 47.81 27.04a1.002 1.002 0 0 0-1.945-.486l-2.602 10.413a1.002 1.002 0 0 0 1.944.486z" fill="#0071bc" opacity="1" data-original="#0071bc" class=""></path></g></g></svg>