<svg xmlns="http://www.w3.org/2000/svg" version="1.1" xmlns:xlink="http://www.w3.org/1999/xlink" width="512" height="512" x="0" y="0" viewBox="0 0 512 512" style="enable-background:new 0 0 512 512" xml:space="preserve" class=""><g><path fill="#3c87d0" d="M512 66.602H0V14.569C0 6.523 6.523 0 14.569 0h482.862C505.477 0 512 6.523 512 14.569z" opacity="1" data-original="#3c87d0"></path><path fill="#0078c8" d="M497.431 0h-37.463c8.046 0 14.569 6.523 14.569 14.569v52.033H512V14.569C512 6.523 505.477 0 497.431 0z" opacity="1" data-original="#0078c8"></path><path fill="#dff6fd" d="M497.431 420.423H14.569C6.523 420.423 0 413.9 0 405.854V66.602h512v339.252c0 8.046-6.523 14.569-14.569 14.569z" opacity="1" data-original="#dff6fd" class=""></path><path fill="#c8effe" d="M474.537 66.602v339.252c0 8.046-6.523 14.569-14.569 14.569h37.463c8.046 0 14.569-6.523 14.569-14.569V66.602z" opacity="1" data-original="#c8effe"></path><path fill="#ffe177" d="m420.084 347.071-94.621-35.999a11.155 11.155 0 0 0-14.392 14.392l35.999 94.621a14.57 14.57 0 0 0 13.785 9.388l42.217-.487 25.912-25.912.487-42.217a14.567 14.567 0 0 0-9.387-13.786zm-29.946 43.067c-6.502 6.502-17.045 6.502-23.547 0s-6.502-17.045 0-23.547 17.045-6.502 23.547 0 6.502 17.045 0 23.547z" opacity="1" data-original="#ffe177"></path><path fill="#ffd15b" d="m420.084 347.071-43.155-16.419c2.687 9.958 4.805 20.604 6.26 31.777a16.564 16.564 0 0 1 6.948 4.161c6.502 6.502 6.502 17.045 0 23.547a16.566 16.566 0 0 1-4.695 3.28 282.4 282.4 0 0 1-1.601 35.788l19.23-.222 25.912-25.912.487-42.216a14.564 14.564 0 0 0-9.386-13.784z" opacity="1" data-original="#ffd15b"></path><path fill="#ffc344" d="m401.601 430.456 28.856-28.856a8.326 8.326 0 0 1 11.774 0l10.302 10.302a8.326 8.326 0 0 1 0 11.774l-28.856 28.856a8.326 8.326 0 0 1-11.774 0l-10.302-10.302a8.326 8.326 0 0 1 0-11.774z" opacity="1" data-original="#ffc344"></path><path fill="#9facba" d="m452.532 423.676-28.856 28.856 30.121 54.318a10.001 10.001 0 0 0 8.745 5.15H502c5.523 0 10-4.477 10-10v-39.457a10 10 0 0 0-5.15-8.745z" opacity="1" data-original="#9facba"></path><path fill="#8d9ca8" d="M512 482.337v-19.794a10 10 0 0 0-5.15-8.745l-54.318-30.121-16.522 16.522z" opacity="1" data-original="#8d9ca8" class=""></path><path fill="#fd8087" d="M457.886 271.825a7.5 7.5 0 0 1-7.5-7.5v-6c0-4.143 3.358-7.5 7.5-7.5s7.5 3.357 7.5 7.5v6a7.5 7.5 0 0 1-7.5 7.5zM457.886 236.279a7.5 7.5 0 0 1-7.5-7.5v-11.08c0-4.143 3.358-7.5 7.5-7.5s7.5 3.357 7.5 7.5v11.08a7.5 7.5 0 0 1-7.5 7.5zm0-40.625a7.5 7.5 0 0 1-7.5-7.5v-11.08c0-4.143 3.358-7.5 7.5-7.5s7.5 3.357 7.5 7.5v11.08a7.5 7.5 0 0 1-7.5 7.5zM457.886 155.028a7.5 7.5 0 0 1-7.5-7.5v-6c0-4.143 3.358-7.5 7.5-7.5s7.5 3.357 7.5 7.5v6a7.5 7.5 0 0 1-7.5 7.5zM54.114 271.825a7.5 7.5 0 0 1-7.5-7.5v-6c0-4.143 3.358-7.5 7.5-7.5s7.5 3.357 7.5 7.5v6a7.5 7.5 0 0 1-7.5 7.5zM54.114 236.279a7.5 7.5 0 0 1-7.5-7.5v-11.08c0-4.143 3.358-7.5 7.5-7.5s7.5 3.357 7.5 7.5v11.08a7.5 7.5 0 0 1-7.5 7.5zm0-40.625a7.5 7.5 0 0 1-7.5-7.5v-11.08c0-4.143 3.358-7.5 7.5-7.5s7.5 3.357 7.5 7.5v11.08a7.5 7.5 0 0 1-7.5 7.5zM54.114 155.028a7.5 7.5 0 0 1-7.5-7.5v-6c0-4.143 3.358-7.5 7.5-7.5s7.5 3.357 7.5 7.5v6a7.5 7.5 0 0 1-7.5 7.5zM437.073 292.639h-6c-4.142 0-7.5-3.357-7.5-7.5s3.358-7.5 7.5-7.5h6c4.142 0 7.5 3.357 7.5 7.5s-3.358 7.5-7.5 7.5zM398.118 292.639H385.76c-4.142 0-7.5-3.357-7.5-7.5s3.358-7.5 7.5-7.5h12.358c4.142 0 7.5 3.357 7.5 7.5s-3.358 7.5-7.5 7.5zm-45.313 0h-12.358c-4.142 0-7.5-3.357-7.5-7.5s3.358-7.5 7.5-7.5h12.358c4.142 0 7.5 3.357 7.5 7.5s-3.358 7.5-7.5 7.5zm-45.313 0h-12.358c-4.142 0-7.5-3.357-7.5-7.5s3.358-7.5 7.5-7.5h12.358c4.142 0 7.5 3.357 7.5 7.5s-3.358 7.5-7.5 7.5zm-45.313 0h-12.358c-4.142 0-7.5-3.357-7.5-7.5s3.358-7.5 7.5-7.5h12.358c4.142 0 7.5 3.357 7.5 7.5s-3.358 7.5-7.5 7.5zm-45.313 0h-12.358c-4.142 0-7.5-3.357-7.5-7.5s3.358-7.5 7.5-7.5h12.358c4.142 0 7.5 3.357 7.5 7.5s-3.358 7.5-7.5 7.5zm-45.313 0h-12.358c-4.142 0-7.5-3.357-7.5-7.5s3.358-7.5 7.5-7.5h12.358c4.142 0 7.5 3.357 7.5 7.5s-3.358 7.5-7.5 7.5zm-45.313 0h-12.358c-4.142 0-7.5-3.357-7.5-7.5s3.358-7.5 7.5-7.5h12.358c4.142 0 7.5 3.357 7.5 7.5s-3.358 7.5-7.5 7.5zM80.927 292.639h-6c-4.142 0-7.5-3.357-7.5-7.5s3.358-7.5 7.5-7.5h6c4.142 0 7.5 3.357 7.5 7.5s-3.358 7.5-7.5 7.5zM437.073 128.216h-6c-4.142 0-7.5-3.357-7.5-7.5s3.358-7.5 7.5-7.5h6c4.142 0 7.5 3.357 7.5 7.5s-3.358 7.5-7.5 7.5zM398.118 128.216H385.76c-4.142 0-7.5-3.357-7.5-7.5s3.358-7.5 7.5-7.5h12.358c4.142 0 7.5 3.357 7.5 7.5s-3.358 7.5-7.5 7.5zm-45.313 0h-12.358c-4.142 0-7.5-3.357-7.5-7.5s3.358-7.5 7.5-7.5h12.358c4.142 0 7.5 3.357 7.5 7.5s-3.358 7.5-7.5 7.5zm-45.313 0h-12.358c-4.142 0-7.5-3.357-7.5-7.5s3.358-7.5 7.5-7.5h12.358c4.142 0 7.5 3.357 7.5 7.5s-3.358 7.5-7.5 7.5zm-45.313 0h-12.358c-4.142 0-7.5-3.357-7.5-7.5s3.358-7.5 7.5-7.5h12.358c4.142 0 7.5 3.357 7.5 7.5s-3.358 7.5-7.5 7.5zm-45.313 0h-12.358c-4.142 0-7.5-3.357-7.5-7.5s3.358-7.5 7.5-7.5h12.358c4.142 0 7.5 3.357 7.5 7.5s-3.358 7.5-7.5 7.5zm-45.313 0h-12.358c-4.142 0-7.5-3.357-7.5-7.5s3.358-7.5 7.5-7.5h12.358c4.142 0 7.5 3.357 7.5 7.5s-3.358 7.5-7.5 7.5zm-45.313 0h-12.358c-4.142 0-7.5-3.357-7.5-7.5s3.358-7.5 7.5-7.5h12.358c4.142 0 7.5 3.357 7.5 7.5s-3.358 7.5-7.5 7.5zM80.927 128.216h-6c-4.142 0-7.5-3.357-7.5-7.5s3.358-7.5 7.5-7.5h6c4.142 0 7.5 3.357 7.5 7.5s-3.358 7.5-7.5 7.5z" opacity="1" data-original="#fd8087"></path><g fill="#62dbfb"><path d="M255.007 166.872a7.5 7.5 0 0 0-13.952 0l-26.292 66.602a7.5 7.5 0 1 0 13.952 5.507l4.582-11.607h29.467l4.582 11.607a7.502 7.502 0 0 0 9.73 4.223 7.5 7.5 0 0 0 4.222-9.73zm-15.788 45.502 8.812-22.322 8.812 22.322zM347.488 162.126a7.5 7.5 0 0 0-7.5 7.5v42.865l-33.032-47.051a7.498 7.498 0 0 0-13.638 4.309v66.478c0 4.143 3.358 7.5 7.5 7.5s7.5-3.357 7.5-7.5v-42.741l33.032 47.051a7.5 7.5 0 0 0 13.638-4.31v-66.602a7.5 7.5 0 0 0-7.5-7.499zM392.523 162.126H373.66a7.5 7.5 0 0 0-7.5 7.515l.135 66.602a7.5 7.5 0 0 0 7.5 7.485h.028c.57-.002 14.014-.054 19.382-.147 19.535-.342 33.713-17.438 33.713-40.653.001-24.406-13.821-40.802-34.395-40.802zm.421 66.456c-2.666.047-7.511.083-11.664.108l-.104-51.564h11.348c14.3 0 19.396 13.328 19.396 25.801-.001 17.493-9.531 25.49-18.976 25.655zM130.659 197.97a22.694 22.694 0 0 0 4.093-13.019c0-12.586-10.239-22.825-22.825-22.825H92.581a7.5 7.5 0 0 0-7.5 7.5v66.602a7.503 7.503 0 0 0 7.5 7.5h.033c.001 0 17.789-.079 22.691-.079 14.021 0 25.427-11.406 25.427-25.427.001-8.257-3.957-15.604-10.073-20.252zm-18.732-20.844c4.315 0 7.825 3.511 7.825 7.825s-3.51 7.825-7.825 7.825c-1.401 0-11.846.018-11.846.018v-15.668zm3.379 51.522c-2.789 0-9.734.025-15.225.048v-20.884c1.613-.006 15.225-.019 15.225-.019 5.75 0 10.427 4.678 10.427 10.428s-4.678 10.427-10.427 10.427zM203.048 186.935c0-13.68-11.569-24.809-25.789-24.809H159.56a7.5 7.5 0 0 0-7.5 7.495l-.021 66.606c0 4.143 3.358 7.5 7.5 7.5s7.5-3.357 7.5-7.5v-21.04l22.879 25.995a7.478 7.478 0 0 0 5.633 2.545 7.5 7.5 0 0 0 5.627-12.455l-17.812-20.237c11.282-2.646 19.682-12.445 19.682-24.1zm-25.788 9.809c-2.354 0-6.513.018-10.215.035l.012-19.653h10.204c5.848 0 10.789 4.492 10.789 9.809-.002 5.317-4.942 9.809-10.79 9.809z" fill="#62dbfb" opacity="1" data-original="#62dbfb" class=""></path></g><path fill="#ffc344" d="M313.609 313.609a11.144 11.144 0 0 0-3.249 7.358l52.199 52.199c.788-2.403 2.121-4.666 4.031-6.576s4.173-3.243 6.576-4.031l-52.199-52.199a11.151 11.151 0 0 0-7.358 3.249z" opacity="1" data-original="#ffc344"></path><circle cx="37.463" cy="33.301" r="7.5" fill="#fd8087" opacity="1" data-original="#fd8087"></circle><circle cx="72.846" cy="33.301" r="7.5" fill="#ffe177" opacity="1" data-original="#ffe177"></circle><circle cx="108.228" cy="33.301" r="7.5" fill="#a2e62e" opacity="1" data-original="#a2e62e"></circle><path fill="#8d9ca8" d="M472.455 141.528h-29.138a6.244 6.244 0 0 1-6.244-6.244v-29.138a6.244 6.244 0 0 1 6.244-6.244h29.138a6.244 6.244 0 0 1 6.244 6.244v29.138a6.243 6.243 0 0 1-6.244 6.244zM68.683 141.528H39.545a6.244 6.244 0 0 1-6.244-6.244v-29.138a6.244 6.244 0 0 1 6.244-6.244h29.138a6.244 6.244 0 0 1 6.244 6.244v29.138a6.244 6.244 0 0 1-6.244 6.244zM472.455 305.951h-29.138a6.245 6.245 0 0 1-6.244-6.244v-29.138a6.244 6.244 0 0 1 6.244-6.244h29.138a6.245 6.245 0 0 1 6.244 6.244v29.138a6.243 6.243 0 0 1-6.244 6.244zM68.683 305.951H39.545a6.245 6.245 0 0 1-6.244-6.244v-29.138a6.244 6.244 0 0 1 6.244-6.244h29.138a6.245 6.245 0 0 1 6.244 6.244v29.138a6.244 6.244 0 0 1-6.244 6.244z" opacity="1" data-original="#8d9ca8" class=""></path></g></svg>