<svg xmlns="http://www.w3.org/2000/svg" version="1.1" xmlns:xlink="http://www.w3.org/1999/xlink" width="512" height="512" x="0" y="0" viewBox="0 0 512 512" style="enable-background:new 0 0 512 512" xml:space="preserve" class=""><g><linearGradient id="a" x1="-85.442" x2="245.868" y1="546.857" y2="215.546" gradientUnits="userSpaceOnUse"><stop offset="0" style="stop-color:#D1DDFF;stop-opacity:0" stop-color="#d1ddff;stop-opacity:0"></stop><stop offset="1" style="stop-color:#B6C4FF" stop-color="#b6c4ff"></stop></linearGradient><path d="M471.476 124.825c-65.417-50.293-128.867-9.306-199.64-23.797-71.285-14.597-99.685-63.201-180.876-40.766C19.038 80.136-24.602 159.813 14.936 226.52c11.267 19.009 30.461 33.35 38.305 54.619 12.653 34.311-6.607 60.653-2.85 94.372 15.612 140.101 229.574 85.834 308.303 42.245 123.47-68.36 206.998-220.496 112.782-292.931z" style="fill:url(#a);" fill=""></path><g style="opacity:0.1;"><path d="M387.474 330.692c30.376 0 55-24.624 55-55s-24.624-55-55-55c-28.613 0-52.115 21.853-54.746 49.777h-19.404c1.813-1.841 2.309-4.757.918-7.166l-49.426-85.608c-1.837-3.181-6.085-3.961-8.932-1.639l-42.124 34.359v-56.71h51.89c5.523 0 10-4.477 10-10V77.692c0-5.523-4.477-10-10-10h-66.013c-5.523 0-10 4.477-10 10v62.955h-51.89c-5.523 0-10 4.477-10 10v66.013c0 5.523 4.477 10 10 10h56.097l-50.708 41.36a23.939 23.939 0 0 0-2.556 2.45h-24.594a5.438 5.438 0 0 0-5.438 5.438v123.625h-36.02a5 5 0 0 0-5 5v74.805a5 5 0 0 0 5 5h55.235a5 5 0 0 0 5-5v-45.129h62.145v32.785l-9.331 13.96c-.966 1.445.07 3.384 1.809 3.384h85.172c1.739 0 2.775-1.939 1.809-3.384l-9.331-13.96v-32.785h62.145v45.129a5 5 0 0 0 5 5h55.235a5 5 0 0 0 5-5v-74.805a5 5 0 0 0-5-5h-36.02v-80.688c9.369 7.41 21.202 11.847 34.078 11.847z" style="" fill="#0000cb" data-original="#0000cb"></path><path d="M310.571 208.35a4.997 4.997 0 0 0 6.83 1.83l10.731-6.196a4.999 4.999 0 0 0 1.83-6.83 4.999 4.999 0 0 0-6.83-1.83l-10.731 6.196a5 5 0 0 0-1.83 6.83zM299.289 195.348a4.995 4.995 0 0 0 6.83-1.83l6.196-10.731a4.999 4.999 0 0 0-1.83-6.83 4.996 4.996 0 0 0-6.83 1.83l-6.196 10.731a4.999 4.999 0 0 0 1.83 6.83zM321.189 219.621c-2.762 0-5 2.238-5 5s2.238 5 5 5h12.393c2.762 0 5-2.238 5-5s-2.238-5-5-5h-12.393zM341.632 176.108h66.013c5.523 0 10-4.477 10-10v-66.013c0-5.523-4.477-10-10-10h-66.013c-5.523 0-10 4.477-10 10v66.013c0 5.523 4.477 10 10 10z" style="" fill="#0000cb" data-original="#0000cb"></path></g><circle cx="387.474" cy="251.692" r="55" style="" fill="#ffffff" data-original="#ffffff"></circle><circle cx="387.474" cy="251.692" r="38.5" style="" fill="#6582fd" data-original="#6582fd"></circle><circle cx="387.474" cy="251.692" r="55" style="stroke-width:10;stroke-linecap:round;stroke-linejoin:round;stroke-miterlimit:10;" fill="none" stroke="#0000cb" stroke-width="10" stroke-linecap="round" stroke-linejoin="round" stroke-miterlimit="10" data-original="#0000cb"></circle><path d="M387.49 251.711v-.001l-.033-.038.033.039z" style="" fill="#b2b2ff" data-original="#b2b2ff"></path><circle cx="387.474" cy="245.885" r="11.613" style="stroke-width:10;stroke-linecap:round;stroke-linejoin:round;stroke-miterlimit:10;" fill="none" stroke="#ffffff" stroke-width="10" stroke-linecap="round" stroke-linejoin="round" stroke-miterlimit="10" data-original="#ffffff"></circle><path d="M399.087 269.112c0-6.414-5.199-11.613-11.613-11.613s-11.613 5.199-11.613 11.613" style="stroke-width:10;stroke-linecap:round;stroke-linejoin:round;stroke-miterlimit:10;" fill="none" stroke="#ffffff" stroke-width="10" stroke-linecap="round" stroke-linejoin="round" stroke-miterlimit="10" data-original="#ffffff"></path><path d="M196.906 410.209h70.128v32.785h-70.128z" style="" fill="#6582fd" data-original="#6582fd"></path><path d="M196.906 410.209h70.128v32.785h-70.128z" style="stroke-width:10;stroke-linecap:round;stroke-linejoin:round;stroke-miterlimit:10;" fill="none" stroke="#0000cb" stroke-width="10" stroke-linecap="round" stroke-linejoin="round" stroke-miterlimit="10" data-original="#0000cb"></path><path d="M353.39 251.9v129.08l-121.42 5-121.42-5V251.9c0-3 2.43-5.44 5.44-5.44h231.97c3 0 5.43 2.44 5.43 5.44z" style="" fill="#6582fd" data-original="#6582fd"></path><path d="M325.744 337.298h-14.98M325.744 355.11h-30.241" style="stroke-width:10;stroke-linecap:round;stroke-linejoin:round;stroke-miterlimit:10;" fill="none" stroke="#ffffff" stroke-width="10" stroke-linecap="round" stroke-linejoin="round" stroke-miterlimit="10" data-original="#ffffff"></path><path d="M347.955 410.209h-231.97a5.438 5.438 0 0 1-5.438-5.438v-23.795h242.847v23.795a5.44 5.44 0 0 1-5.439 5.438z" style="" fill="#ffffff" data-original="#ffffff"></path><path d="M165.557 410.208h182.398a5.438 5.438 0 0 0 5.438-5.438V251.908a5.438 5.438 0 0 0-5.438-5.438h-231.97a5.438 5.438 0 0 0-5.438 5.438v121.625" style="stroke-width:10;stroke-linecap:round;stroke-linejoin:round;stroke-miterlimit:10;" fill="none" stroke="#0000cb" stroke-width="10" stroke-linecap="round" stroke-linejoin="round" stroke-miterlimit="10" data-original="#0000cb"></path><path d="M274.556 460.338h-85.172c-1.739 0-2.775-1.939-1.809-3.384l9.331-13.96h70.128l9.331 13.96c.966 1.445-.07 3.384-1.809 3.384z" style="" fill="#ffffff" data-original="#ffffff"></path><path d="M274.556 460.338h-85.172c-1.739 0-2.775-1.939-1.809-3.384l9.331-13.96h70.128l9.331 13.96c.966 1.445-.07 3.384-1.809 3.384z" style="stroke-width:10;stroke-linecap:round;stroke-linejoin:round;stroke-miterlimit:10;" fill="none" stroke="#0000cb" stroke-width="10" stroke-linecap="round" stroke-linejoin="round" stroke-miterlimit="10" data-original="#0000cb"></path><path d="M129.761 460.338H74.526a5 5 0 0 1-5-5v-74.805a5 5 0 0 1 5-5h55.235a5 5 0 0 1 5 5v74.805a5 5 0 0 1-5 5z" style="" fill="#6582fd" data-original="#6582fd"></path><path d="M129.761 460.338H74.526a5 5 0 0 1-5-5v-74.805a5 5 0 0 1 5-5h55.235a5 5 0 0 1 5 5v74.805a5 5 0 0 1-5 5z" style="stroke-width:10;stroke-linecap:round;stroke-linejoin:round;stroke-miterlimit:10;" fill="none" stroke="#0000cb" stroke-width="10" stroke-linecap="round" stroke-linejoin="round" stroke-miterlimit="10" data-original="#0000cb"></path><path d="M94.251 398.089v.116M110.036 398.089v.116M87.506 420.908h29.275M87.506 437.781h29.275" style="stroke-width:10;stroke-linecap:round;stroke-linejoin:round;stroke-miterlimit:10;" fill="none" stroke="#ffffff" stroke-width="10" stroke-linecap="round" stroke-linejoin="round" stroke-miterlimit="10" data-original="#ffffff"></path><path d="M389.414 460.338h-55.235a5 5 0 0 1-5-5v-74.805a5 5 0 0 1 5-5h55.235a5 5 0 0 1 5 5v74.805a5 5 0 0 1-5 5z" style="" fill="#6582fd" data-original="#6582fd"></path><path d="M389.414 460.338h-55.235a5 5 0 0 1-5-5v-74.805a5 5 0 0 1 5-5h55.235a5 5 0 0 1 5 5v74.805a5 5 0 0 1-5 5z" style="stroke-width:10;stroke-linecap:round;stroke-linejoin:round;stroke-miterlimit:10;" fill="none" stroke="#0000cb" stroke-width="10" stroke-linecap="round" stroke-linejoin="round" stroke-miterlimit="10" data-original="#0000cb"></path><path d="M353.904 398.089v.116M369.689 398.089v.116M347.159 420.908h29.275M347.159 437.781h29.275" style="stroke-width:10;stroke-linecap:round;stroke-linejoin:round;stroke-miterlimit:10;" fill="none" stroke="#ffffff" stroke-width="10" stroke-linecap="round" stroke-linejoin="round" stroke-miterlimit="10" data-original="#ffffff"></path><path d="M265.649 129.705h-66.013c-5.523 0-10-4.477-10-10V53.691c0-5.523 4.477-10 10-10h66.013c5.523 0 10 4.477 10 10v66.013c0 5.524-4.477 10.001-10 10.001z" style="" fill="#6582fd" data-original="#6582fd"></path><path d="M199.636 129.705h66.013c5.523 0 10-4.477 10-10V53.692c0-5.523-4.477-10-10-10h-66.013c-5.523 0-10 4.477-10 10v32.003" style="stroke-width:10;stroke-linecap:round;stroke-linejoin:round;stroke-miterlimit:10;" fill="none" stroke="#0000cb" stroke-width="10" stroke-linecap="round" stroke-linejoin="round" stroke-miterlimit="10" data-original="#0000cb"></path><path d="M214.045 100.433v-27.47c0-3.615 3.804-5.965 7.037-4.349l27.47 13.735c3.584 1.792 3.584 6.906 0 8.698l-27.47 13.735c-3.233 1.616-7.037-.734-7.037-4.349zM222.124 322.662l-11.699 6.754a5.962 5.962 0 0 1-8.144-2.182l-21.507-37.252 22.025-12.716 21.507 37.252a5.962 5.962 0 0 1-2.182 8.144z" style="" fill="#ffffff" data-original="#ffffff"></path><path d="m222.124 322.662-11.699 6.754a5.962 5.962 0 0 1-8.144-2.182l-21.507-37.252 22.025-12.716 21.507 37.252a5.962 5.962 0 0 1-2.182 8.144z" style="stroke-width:10;stroke-linecap:round;stroke-linejoin:round;stroke-miterlimit:10;" fill="none" stroke="#0000cb" stroke-width="10" stroke-linecap="round" stroke-linejoin="round" stroke-miterlimit="10" data-original="#0000cb"></path><path d="M311.195 247.858 175.177 299.52c-10.937 4.154-23.272-.239-29.121-10.37l-8.502-14.725c-5.849-10.132-3.486-23.01 5.58-30.405l112.749-91.963c2.846-2.322 7.095-1.542 8.932 1.639l49.426 85.608c1.837 3.18.387 7.25-3.046 8.554z" style="" fill="#ffffff" data-original="#ffffff"></path><path d="m311.19 247.861-13.33 5.06-53.03-91.85 11.05-9.01c2.85-2.33 7.1-1.55 8.93 1.63l49.43 85.61c1.84 3.18.39 7.25-3.05 8.56zM170.648 221.579l-27.513 22.441c-9.066 7.395-11.429 20.273-5.58 30.405l8.501 14.725c5.85 10.132 18.184 14.524 29.121 10.37l33.191-12.607-37.72-65.334z" style="" fill="#6582fd" data-original="#6582fd"></path><path d="M311.195 247.858 175.177 299.52c-10.937 4.154-23.272-.239-29.121-10.37l-8.502-14.725c-5.849-10.132-3.486-23.01 5.58-30.405l112.749-91.963c2.846-2.322 7.095-1.542 8.932 1.639l49.426 85.608c1.837 3.18.387 7.25-3.046 8.554zM169.325 255.013l15.469-8.931M178.753 271.341l15.469-8.931M325.633 175.654l-10.732 6.196M307.986 156.287l-6.197 10.732M333.582 200.621H321.19" style="stroke-width:10;stroke-linecap:round;stroke-linejoin:round;stroke-miterlimit:10;" fill="none" stroke="#0000cb" stroke-width="10" stroke-linecap="round" stroke-linejoin="round" stroke-miterlimit="10" data-original="#0000cb"></path><path d="M203.759 202.659h-66.013c-5.523 0-10-4.477-10-10v-66.013c0-5.523 4.477-10 10-10h66.013c5.523 0 10 4.477 10 10v66.013c0 5.523-4.477 10-10 10z" style="" fill="#6582fd" data-original="#6582fd"></path><path d="M213.759 159.653v-33.007c0-5.523-4.477-10-10-10h-66.013c-5.523 0-10 4.477-10 10v33.007h86.013z" style="" fill="#ffffff" data-original="#ffffff"></path><path d="M203.759 202.659h-66.013c-5.523 0-10-4.477-10-10v-66.013c0-5.523 4.477-10 10-10h66.013c5.523 0 10 4.477 10 10v66.013c0 5.523-4.477 10-10 10z" style="stroke-width:10;stroke-linecap:round;stroke-linejoin:round;stroke-miterlimit:10;" fill="none" stroke="#0000cb" stroke-width="10" stroke-linecap="round" stroke-linejoin="round" stroke-miterlimit="10" data-original="#0000cb"></path><circle cx="170.753" cy="159.653" r="23.195" style="" fill="#0000cb" data-original="#0000cb"></circle><circle cx="170.753" cy="159.653" r="12.573" style="" fill="#ffffff" data-original="#ffffff"></circle><path d="M197.008 184.358v.115" style="stroke-width:10;stroke-linecap:round;stroke-linejoin:round;stroke-miterlimit:10;" fill="none" stroke="#ffffff" stroke-width="10" stroke-linecap="round" stroke-linejoin="round" stroke-miterlimit="10" data-original="#ffffff"></path><path d="M407.645 152.108h-66.013c-5.523 0-10-4.477-10-10V76.095c0-5.523 4.477-10 10-10h66.013c5.523 0 10 4.477 10 10v66.013c0 5.523-4.477 10-10 10z" style="" fill="#ffffff" data-original="#ffffff"></path><path d="M407.645 152.108h-66.013c-5.523 0-10-4.477-10-10V76.095c0-5.523 4.477-10 10-10h66.013c5.523 0 10 4.477 10 10v66.013c0 5.523-4.477 10-10 10z" style="stroke-width:10;stroke-linecap:round;stroke-linejoin:round;stroke-miterlimit:10;" fill="none" stroke="#0000cb" stroke-width="10" stroke-linecap="round" stroke-linejoin="round" stroke-miterlimit="10" data-original="#0000cb"></path><path d="M354.666 90.193h39.946M354.666 109.101h39.946M354.666 128.01h39.946" style="stroke-width:10;stroke-linecap:round;stroke-linejoin:round;stroke-miterlimit:10;" fill="none" stroke="#6582fd" stroke-width="10" stroke-linecap="round" stroke-linejoin="round" stroke-miterlimit="10" data-original="#6582fd"></path><circle cx="85.494" cy="165.227" r="10.5" style="stroke-width:10;stroke-linecap:round;stroke-linejoin:round;stroke-miterlimit:10;" fill="none" stroke="#6582fd" stroke-width="10" stroke-linecap="round" stroke-linejoin="round" stroke-miterlimit="10" data-original="#6582fd"></circle><circle cx="457.474" cy="168.215" r="10.5" style="stroke-width:10;stroke-linecap:round;stroke-linejoin:round;stroke-miterlimit:10;" fill="none" stroke="#6582fd" stroke-width="10" stroke-linecap="round" stroke-linejoin="round" stroke-miterlimit="10" data-original="#6582fd"></circle><circle cx="310.764" cy="43.163" r="10.5" style="stroke-width:10;stroke-linecap:round;stroke-linejoin:round;stroke-miterlimit:10;" fill="none" stroke="#6582fd" stroke-width="10" stroke-linecap="round" stroke-linejoin="round" stroke-miterlimit="10" data-original="#6582fd"></circle><circle cx="436.474" cy="416.499" r="10.5" style="stroke-width:10;stroke-linecap:round;stroke-linejoin:round;stroke-miterlimit:10;" fill="none" stroke="#6582fd" stroke-width="10" stroke-linecap="round" stroke-linejoin="round" stroke-miterlimit="10" data-original="#6582fd"></circle><path d="m85.494 214.621-10 10" style="stroke-width:10;stroke-linecap:round;stroke-linejoin:round;stroke-miterlimit:10;" fill="none" stroke="#6582fd" stroke-width="10" stroke-linecap="round" stroke-linejoin="round" stroke-miterlimit="10" data-original="#6582fd"></path></g></svg>