<svg xmlns="http://www.w3.org/2000/svg" version="1.1" xmlns:xlink="http://www.w3.org/1999/xlink" width="512" height="512" x="0" y="0" viewBox="0 0 512 512" style="enable-background:new 0 0 512 512" xml:space="preserve" class=""><g><path fill="#24b9cc" d="M169.6 326.1c-1.5 0-3-.7-3.9-2-1.6-2.2-1.1-5.2 1-6.8.7-.5 16.3-12.6 10-32.9-.8-2.6.6-5.3 3.2-6.1s5.3.6 6.1 3.2c6.7 21.6-5.9 38-13.5 43.6-.9.7-1.9 1-2.9 1zM193.4 379.1c-1.9 0-3.8-1.1-4.5-3-1.7-4.3-2.7-8.9-2.9-13.9-6 3.1-15 5.6-27.6 3.9-2.7-.4-4.6-2.8-4.2-5.5s2.8-4.5 5.5-4.2c19.9 2.7 27.9-7.4 28-7.5 1.3-1.8 3.7-2.5 5.8-1.6s3.3 3 2.9 5.3c-1.2 7.8-.7 14.2 1.6 19.8 1 2.5-.2 5.4-2.7 6.4-.6.2-1.2.3-1.9.3zM251.8 401.3h-.3c-.6 0-13.8-.9-24.5-9.4-2.1-1.7-2.5-4.8-.8-6.9s4.8-2.5 6.9-.8c8.2 6.5 18.8 7.2 18.9 7.3 2.7.2 4.7 2.5 4.6 5.2-.1 2.6-2.2 4.6-4.8 4.6zM231.8 348c-2.3 0-4.3-1.6-4.8-3.9-.2-.8-4.2-20.9 6.2-35.3 2.4-3.4 5.4-6.2 8.9-8.3-4.8-3.3-9-8.8-10.7-17.4-.5-2.6 1.2-5.2 3.8-5.8 2.6-.5 5.2 1.2 5.8 3.8 3.1 15.2 15.9 14.2 17.5 14 2.7-.3 5.1 1.6 5.4 4.2.3 2.4-1.2 4.7-3.5 5.3-.2.1-.5.1-.7.1h-.3c-8.2 1-14.4 4.3-18.3 9.6-7.9 10.9-4.6 27.5-4.6 27.7.5 2.6-1.2 5.2-3.8 5.8-.2.1-.5.2-.9.2zM248.6 255.9c-.4 0-.9-.1-1.3-.2-2.6-.7-4.1-3.4-3.4-6 .3-1.2 7.6-30.2-21.6-42.7-2.5-1.1-3.6-3.9-2.6-6.4 1.1-2.5 3.9-3.6 6.4-2.6 37 16 27.2 53.9 27.1 54.2-.5 2.3-2.5 3.7-4.6 3.7zM171.2 154.3c-2.5 0-4.7-2-4.9-4.5-.7-10.2 1.9-18.7 7.6-25.2 10-11.2 25.9-12 26.5-12 2.7-.1 5 2 5.1 4.7s-2 5-4.7 5.1c-.1 0-12.5.7-19.7 8.8-3.9 4.4-5.7 10.5-5.1 17.9.2 2.7-1.8 5-4.5 5.2h-.3zM200.6 244.5c-9.4 0-19.8-5.8-26.6-15.9-10-14.7-9.1-32.2 2.1-39.8 2.2-1.5 5.3-1 6.8 1.3 1.5 2.2 1 5.3-1.3 6.8-6.4 4.4-6.2 16.4.5 26.3 6.7 9.8 17.8 14.4 24.2 10 2.2-1.5 5.3-.9 6.8 1.3s.9 5.3-1.3 6.8c-3.4 2.1-7.2 3.2-11.2 3.2zM245.1 170.6c-1.4 0-2.9-.6-3.8-1.8-1.7-2.1-1.4-5.2.7-6.9.1-.1 4.2-3.5 6.3-9.5 2.8-8 1-16.8-5.3-26.3-1.5-2.2-.9-5.3 1.3-6.8s5.3-.9 6.8 1.3c20.1 29.9-2.7 48.7-3 48.9-.9.7-2 1.1-3 1.1z" opacity="1" data-original="#24b9cc" class=""></path><path fill="#24b9cc" d="M268.2 470.9c-12.7 0-20.9-5.3-27.1-11.5-8.2 7.4-18.8 11.5-29.9 11.5-23.5 0-42.9-18.2-44.6-41.3-4.3 1.1-8.8 1.6-13.4 1.4-22.3-.9-40.7-18.3-42.7-40.6-.5-5.5 0-11 1.5-16.4-19.2-3.2-34-20.1-34-40.3 0-12.2 5.6-23.8 14.9-31.5C86 295.3 82 285.9 82 276c0-9.1 3.3-17.8 9.2-24.5C82.9 243.9 78 233 78 221.4c0-17.2 10.7-32.3 26.4-38.3-3.1-5.9-4.8-12.5-4.8-19.2 0-21.2 16.2-38.6 36.8-40.7-.4-2.6-.7-5.2-.7-7.8 0-12.2 4.7-23.6 13.2-32.2 7.9-8 18.2-12.7 29.3-13.6 12-18 31.8-28.7 53.4-28.6 16.9 0 32.8 6.6 44.8 18.5 12.1 12.1 18.8 28.1 18.8 45.2v339.1c0 14.9-12 27.1-26.6 27.2h-.4zm-27-23.4s.1 0 0 0c1.4 0 2.8.6 3.7 1.7 7.4 8.6 13.9 12 23.3 12h.3c9.1-.1 16.9-8 16.9-17.4V104.7c0-14.5-5.6-28.1-15.9-38.3-10.2-10.1-23.6-15.7-37.9-15.7h-.2c-19 0-36.3 9.8-46.3 26.1-.9 1.4-2.4 2.3-4.1 2.3-19.6.3-35.6 16.6-35.6 36.2 0 3.8.6 7.5 1.7 11 .5 1.5.2 3.1-.7 4.4s-2.4 2-4 2h-2c-17.2 0-31.3 14-31.3 31.2 0 6.9 2.3 13.7 6.5 19.1 1 1.3 1.3 3.1.7 4.7s-2 2.8-3.6 3.1c-14.6 2.8-25.2 15.7-25.2 30.6 0 10.3 5.1 20 13.6 25.8 1.3.9 2.1 2.3 2.1 3.8.1 1.5-.6 3-1.8 4-6.3 5.2-9.9 12.9-9.9 21.1 0 9 4.4 17.4 11.9 22.5 1.4.9 2.2 2.5 2.1 4.2s-1 3.2-2.4 4c-9.6 5.6-15.6 15.9-15.6 27 0 17.1 14 31.1 31.1 31.2 1.7 0 3.2.9 4.1 2.2.9 1.4 1 3.1.3 4.7-2.5 5.6-3.6 11.8-3 17.8 1.6 17.4 15.9 31.1 33.4 31.7 5.5.3 11-.8 15.8-3.1 1.6-.7 3.4-.6 4.9.4 1.4 1 2.2 2.7 2.1 4.4-.1 1.1-.2 2.1-.2 3.1 0 19.3 15.7 35 35 35 10.1 0 19.7-4.4 26.3-12 1.2-1.1 2.5-1.7 3.9-1.7zM373.4 440.4c-12.6 0-22.8-10.2-22.8-22.8s10.2-22.8 22.8-22.8 22.8 10.2 22.8 22.8c0 12.5-10.2 22.8-22.8 22.8zm0-35.8c-7.2 0-13 5.8-13 13s5.8 13 13 13 13-5.8 13-13-5.8-13-13-13zM411.2 345.5c-12.6 0-22.8-10.2-22.8-22.8s10.2-22.8 22.8-22.8 22.8 10.2 22.8 22.8-10.2 22.8-22.8 22.8zm0-35.7c-7.2 0-13 5.8-13 13s5.8 13 13 13 13-5.8 13-13-5.8-13-13-13z" opacity="1" data-original="#24b9cc" class=""></path><path fill="#24b9cc" d="M393.2 327.7h-35c-3.8 0-7.4-1.6-10.2-4.6l-.1-.1-9.4-10.6c-.8-.9-1.9-1.4-3-1.4h-45.3c-2.7 0-4.9-2.2-4.9-4.9s2.2-4.9 4.9-4.9h45.3c3.9 0 7.6 1.7 10.3 4.7l9.3 10.5c.5.6 1.6 1.5 3.1 1.5h35c2.7 0 4.9 2.2 4.9 4.9s-2.2 4.9-4.9 4.9zM411.2 208.8c-12.6 0-22.8-10.2-22.8-22.8s10.2-22.8 22.8-22.8S434 173.4 434 186s-10.2 22.8-22.8 22.8zm0-35.8c-7.2 0-13 5.8-13 13s5.8 13 13 13 13-5.8 13-13-5.8-13-13-13z" opacity="1" data-original="#24b9cc" class=""></path><path fill="#24b9cc" d="M335.8 207.5h-45.4c-2.7 0-4.9-2.2-4.9-4.9s2.2-4.9 4.9-4.9h45.4c1.4 0 2.5-.9 3.1-1.5l9.3-10.5c2.6-3 6.3-4.7 10.3-4.7h34.8c2.7 0 4.9 2.2 4.9 4.9s-2.2 4.9-4.9 4.9h-34.8c-1.2 0-2.2.5-2.9 1.3 0 0 0 .1-.1.1l-9.4 10.6-.1.1c-2.8 3-6.4 4.6-10.2 4.6zM375.3 277.2c-5.5 0-10.7-1.9-14.9-5.6-4.6-4-7.4-9.5-7.8-15.6s1.5-11.9 5.5-16.5 9.5-7.4 15.6-7.8c6.1-.4 11.9 1.5 16.5 5.5s7.4 9.5 7.8 15.6-1.5 11.9-5.5 16.5-9.5 7.4-15.6 7.8c-.5.1-1 .1-1.6.1zm-.9-35.7c-3.5.2-6.6 1.8-8.9 4.5-2.3 2.6-3.4 6-3.1 9.4.2 3.5 1.8 6.6 4.4 8.9s6 3.4 9.4 3.1c3.5-.2 6.6-1.8 8.9-4.4s3.4-6 3.1-9.4c-.2-3.5-1.8-6.6-4.4-8.9-2.5-2.4-5.9-3.5-9.4-3.2z" opacity="1" data-original="#24b9cc" class=""></path><path fill="#24b9cc" d="M357.3 259.2h-67c-2.7 0-4.9-2.2-4.9-4.9s2.2-4.9 4.9-4.9h67c2.7 0 4.9 2.2 4.9 4.9s-2.2 4.9-4.9 4.9zM373.4 404.6c-2.7 0-4.9-2.2-4.9-4.9v-18.9c0-4.7-3.8-8.5-8.5-8.5h-69.7c-2.7 0-4.9-2.2-4.9-4.9s2.2-4.9 4.9-4.9H360c10.1 0 18.3 8.2 18.3 18.3v18.9c0 2.7-2.2 4.9-4.9 4.9zM373.4 117.2c-12.6 0-22.8-10.2-22.8-22.8s10.2-22.8 22.8-22.8 22.8 10.2 22.8 22.8-10.2 22.8-22.8 22.8zm0-35.8c-7.2 0-13 5.8-13 13s5.8 13 13 13 13-5.8 13-13c0-7.1-5.8-13-13-13z" opacity="1" data-original="#24b9cc" class=""></path><path fill="#24b9cc" d="M360 149.4h-69.7c-2.7 0-4.9-2.2-4.9-4.9s2.2-4.9 4.9-4.9H360c4.7 0 8.5-3.8 8.5-8.5v-18.8c0-2.7 2.2-4.9 4.9-4.9s4.9 2.2 4.9 4.9v18.8c0 10.1-8.2 18.3-18.3 18.3z" opacity="1" data-original="#24b9cc" class=""></path></g></svg>