<svg xmlns="http://www.w3.org/2000/svg" version="1.1" xmlns:xlink="http://www.w3.org/1999/xlink" width="512" height="512" x="0" y="0" viewBox="0 0 511.998 511.998" style="enable-background:new 0 0 512 512" xml:space="preserve" class=""><g><path fill="#9ff5ff" d="M268.233 15h-36.969l-13.201 54.014h-89.316L115.545 15H78.576c-23.084 0-41.798 18.713-41.798 41.798V455.2c0 23.084 18.714 41.798 41.798 41.798h189.657c23.084 0 41.798-18.714 41.798-41.798V56.798c0-23.085-18.714-41.798-41.798-41.798z" opacity="1" data-original="#9ff5ff" class=""></path><path fill="#45e8ff" d="M268.233 15h-36.969l-13.201 54.014h-44.658v427.984h94.828c23.084 0 41.798-18.714 41.798-41.798V56.798c0-23.085-18.714-41.798-41.798-41.798z" opacity="1" data-original="#45e8ff"></path><path fill="#27326a" d="M268.233 0H78.576C47.258 0 21.778 25.479 21.778 56.798V455.2c0 31.318 25.479 56.798 56.798 56.798h189.657c31.318 0 56.798-25.479 56.798-56.798V56.798C325.031 25.479 299.551 0 268.233 0zm26.798 455.2c0 14.776-12.021 26.798-26.798 26.798H78.576c-14.776 0-26.798-12.021-26.798-26.798V56.798C51.778 42.021 63.8 30 78.576 30h25.193l13.201 54.014h112.867L243.04 30h25.193c14.776 0 26.798 12.021 26.798 26.798z" opacity="1" data-original="#27326a" class=""></path><path fill="#110b50" d="M268.233 0h-94.828v84.014h56.433L243.04 30h25.193c14.776 0 26.798 12.021 26.798 26.798V455.2c0 14.776-12.021 26.798-26.798 26.798h-94.828v30h94.828c31.318 0 56.798-25.479 56.798-56.798V56.798C325.031 25.479 299.551 0 268.233 0z" opacity="1" data-original="#110b50"></path><circle cx="310.031" cy="281.001" r="165.189" fill="#22a5ff" opacity="1" data-original="#22a5ff"></circle><path fill="#4b65ff" d="M475.22 281.001c0-91.231-73.958-165.189-165.189-165.189V446.19c91.231 0 165.189-73.958 165.189-165.189z" opacity="1" data-original="#4b65ff"></path><path fill="#0acaff" d="M310.031 100.811c-99.357 0-180.189 80.833-180.189 180.189s80.832 180.19 180.189 180.19c99.356 0 180.189-80.833 180.189-180.189s-80.833-180.19-180.189-180.19zm111.502 210.314c-10.741 4.06-22.81 7.457-35.857 10.137 1.189-13.053 1.8-26.544 1.8-40.261s-.611-27.209-1.8-40.261c13.047 2.68 25.116 6.076 35.857 10.137 28.555 10.794 38.687 22.974 38.687 30.125s-10.132 19.329-38.687 30.123zM310.031 431.19c-7.15 0-19.33-10.132-30.125-38.687-4.06-10.741-7.457-22.81-10.137-35.857 13.053 1.188 26.544 1.8 40.261 1.8s27.209-.611 40.261-1.8c-2.68 13.047-6.076 25.116-10.137 35.857-10.793 28.555-22.973 38.687-30.123 38.687zm0-102.744c-15.498 0-30.627-.824-45.03-2.415-1.592-14.403-2.415-29.532-2.415-45.03s.824-30.627 2.415-45.03c14.403-1.592 29.532-2.415 45.03-2.415s30.627.824 45.03 2.415c1.592 14.403 2.415 29.532 2.415 45.03s-.824 30.627-2.415 45.03c-14.403 1.591-29.532 2.415-45.03 2.415zm-150.19-47.445c0-7.15 10.132-19.33 38.687-30.125 10.741-4.06 22.81-7.457 35.857-10.137-1.188 13.053-1.8 26.544-1.8 40.261s.611 27.208 1.8 40.261c-13.047-2.68-25.116-6.076-35.857-10.137-28.555-10.793-38.687-22.973-38.687-30.123zm150.19-150.19c7.15 0 19.33 10.132 30.125 38.687 4.06 10.741 7.457 22.81 10.137 35.857-13.053-1.188-26.544-1.8-40.261-1.8s-27.209.611-40.261 1.8c2.68-13.047 6.076-25.116 10.137-35.857 10.793-28.555 22.972-38.687 30.123-38.687zm141.88 100.897c-5.946-3.188-12.544-6.162-19.77-8.894-14.933-5.645-32.039-10.137-50.566-13.358-3.221-18.527-7.713-35.632-13.358-50.565-2.732-7.226-5.706-13.825-8.894-19.771 43.23 15.062 77.527 49.358 92.588 92.588zm-191.173-92.589c-3.189 5.946-6.163 12.545-8.894 19.771-5.645 14.933-10.137 32.038-13.358 50.565-18.527 3.221-35.632 7.713-50.565 13.358-7.226 2.732-13.825 5.706-19.771 8.894 15.062-43.229 49.358-77.526 92.588-92.588zM168.15 330.293c5.946 3.188 12.545 6.162 19.771 8.894 14.933 5.645 32.038 10.137 50.565 13.358 3.221 18.527 7.713 35.632 13.358 50.565 2.732 7.226 5.705 13.825 8.894 19.771-43.23-15.061-77.526-49.358-92.588-92.588zm191.173 92.589c3.189-5.946 6.163-12.545 8.894-19.771 5.645-14.933 10.137-32.038 13.358-50.565 18.527-3.221 35.633-7.713 50.566-13.358 7.226-2.731 13.824-5.705 19.77-8.894-15.061 43.229-49.358 77.526-92.588 92.588z" opacity="1" data-original="#0acaff"></path><path fill="#22a5ff" d="M310.031 100.811v30c7.15 0 19.33 10.132 30.125 38.687 4.06 10.741 7.457 22.81 10.137 35.857-13.053-1.188-26.544-1.8-40.261-1.8v30c15.498 0 30.627.824 45.03 2.415 1.592 14.403 2.415 29.532 2.415 45.03s-.824 30.627-2.415 45.03c-14.403 1.592-29.532 2.415-45.03 2.415v30c13.717 0 27.209-.611 40.261-1.8-2.68 13.047-6.076 25.116-10.137 35.857-10.794 28.555-22.974 38.687-30.125 38.687v30c99.356 0 180.189-80.833 180.189-180.189s-80.833-180.189-180.189-180.189zm141.88 130.897c-5.946-3.188-12.544-6.162-19.77-8.894-14.933-5.645-32.039-10.137-50.566-13.358-3.221-18.527-7.713-35.632-13.358-50.565-2.732-7.226-5.706-13.825-8.894-19.771 43.23 15.062 77.527 49.358 92.588 92.588zm-92.588 191.174c3.189-5.946 6.163-12.545 8.894-19.771 5.645-14.933 10.137-32.038 13.358-50.565 18.527-3.221 35.633-7.713 50.566-13.358 7.226-2.731 13.824-5.705 19.77-8.894-15.061 43.229-49.358 77.526-92.588 92.588zm62.21-111.757c-10.741 4.06-22.81 7.457-35.857 10.137 1.189-13.053 1.8-26.544 1.8-40.261s-.611-27.209-1.8-40.261c13.047 2.68 25.116 6.076 35.857 10.137 28.555 10.794 38.687 22.974 38.687 30.125s-10.132 19.329-38.687 30.123z" opacity="1" data-original="#22a5ff"></path></g></svg>