<svg xmlns="http://www.w3.org/2000/svg" version="1.1" xmlns:xlink="http://www.w3.org/1999/xlink" width="512" height="512" x="0" y="0" viewBox="0 0 512 512" style="enable-background:new 0 0 512 512" xml:space="preserve" class=""><g><path fill="#295fcc" d="M357.071 135.5v68.857h43.036V376.5h68.857V204.357H512V135.5z" opacity="1" data-original="#295fcc"></path><path fill="#3377ff" d="M0 135.5h68.857v241H0z" opacity="1" data-original="#3377ff" class=""></path><path fill="#29b1cc" d="M349.771 73.966C311.148 45.857 265.41 31 217.5 31l-10 15 10 15c41.524 0 81.158 12.871 114.617 37.222z" opacity="1" data-original="#29b1cc"></path><path fill="#295fcc" d="M320.786 256c0-57.043-46.243-103.286-103.286-103.286l-10 15 10 53.857c19.014 0 34.429 15.414 34.429 34.429s-15.414 34.429-34.429 34.429l-10 53.857 10 15c57.043 0 103.286-46.243 103.286-103.286z" opacity="1" data-original="#295fcc"></path><path fill="#3377ff" d="M183.071 256c0-19.014 15.414-34.429 34.429-34.429v-68.857c-57.043 0-103.286 46.242-103.286 103.286S160.457 359.286 217.5 359.286v-68.857c-19.014 0-34.429-15.415-34.429-34.429z" opacity="1" data-original="#3377ff" class=""></path><path fill="#29b1cc" d="M314.5 122.511C286.176 101.896 252.634 91 217.5 91l-10 15 10 15c28.748 0 56.186 8.91 79.347 25.767z" opacity="1" data-original="#29b1cc"></path><path fill="#2ee6e6" d="m120.5 122.511 17.653 24.256C161.314 129.91 188.752 121 217.5 121V91c-35.134 0-68.676 10.896-97 31.511zM85.229 73.966l17.653 24.256C136.342 73.871 175.976 61 217.5 61V31c-47.91 0-93.648 14.857-132.271 42.966z" opacity="1" data-original="#2ee6e6"></path><path fill="#29b1cc" d="M296.847 365.233C273.686 382.09 246.248 391 217.5 391l-10 15 10 15c35.134 0 68.676-10.896 97-31.511zM217.5 451l-10 15 10 15c47.91 0 93.648-14.857 132.271-42.966l-17.653-24.256C298.658 438.129 259.024 451 217.5 451z" opacity="1" data-original="#29b1cc"></path><g fill="#2ee6e6"><path d="M138.153 365.233 120.5 389.489c28.324 20.615 61.867 31.511 97 31.511v-30c-28.748 0-56.186-8.91-79.347-25.767zM102.883 413.778 85.23 438.034C123.852 466.143 169.59 481 217.5 481v-30c-41.524 0-81.158-12.871-114.617-37.222z" fill="#2ee6e6" opacity="1" data-original="#2ee6e6"></path></g></g></svg>